<?xml version="1.0" encoding="UTF-8"?>
<svg width="16px" height="20px" viewBox="0 0 16 20" version="1.1" xmlns="http://www.w3.org/2000/svg" xmlns:xlink="http://www.w3.org/1999/xlink">
    <title>constructor</title>
    <g id="constructor" stroke="none" stroke-width="1" fill="none" fill-rule="evenodd">
        <g id="race-car" transform="translate(0.000000, 7.000000)" fill="#FFFFFF" fill-rule="nonzero">
            <path d="M6.95428125,1.95315625 L8.49209375,1.95315625 L8.4774375,1.56490625 L7.85465625,1.52459375 C7.8414375,1.52265625 7.83021875,1.513375 7.82534375,1.50015625 L7.7728125,1.29834375 C7.76840625,1.285875 7.770375,1.27146875 7.7776875,1.26046875 C7.7855,1.2495 7.79821875,1.242875 7.81190625,1.242875 L8.404125,1.242875 C8.36015625,0.83265625 8.0985,0.52871875 7.6865625,0.46665625 C7.10090625,0.3786875 6.6481875,0.79796875 6.72,1.30128125 C6.7493125,1.5060625 6.85190625,1.8288125 6.95428125,1.95315625 Z M8.113375,0.8224375 L7.94796875,0.8116875 C7.94796875,0.8116875 7.87196875,0.71371875 7.8065,0.63746875 C7.87196875,0.63746875 8.03715625,0.7029375 8.113375,0.8224375 Z" id="Shape"></path>
            <path d="M2.04428125,2.10365625 C1.14440625,2.10365625 0.41484375,2.83321875 0.41484375,3.7333125 C0.41484375,4.6334375 1.14440625,5.36296875 2.04428125,5.36296875 C2.94440625,5.36296875 3.6739375,4.63340625 3.6739375,3.7333125 C3.6739375,2.83325 2.94440625,2.10365625 2.04428125,2.10365625 Z M2.04428125,4.592625 C1.57003125,4.592625 1.18521875,4.2083125 1.18521875,3.7333125 C1.18521875,3.25859375 1.57003125,2.87425 2.04428125,2.87425 C2.51928125,2.87425 2.90359375,3.25859375 2.90359375,3.7333125 C2.90359375,4.2083125 2.51928125,4.592625 2.04428125,4.592625 Z" id="Shape"></path>
            <path d="M2.04428125,3.46653125 C1.8971875,3.46653125 1.77796875,3.58625 1.77796875,3.73334375 C1.77796875,3.8806875 1.8971875,4.00015625 2.04428125,4.00015625 C2.191625,4.00015625 2.31134375,3.8806875 2.31134375,3.73334375 C2.31134375,3.58625 2.191625,3.46653125 2.04428125,3.46653125 Z" id="Path"></path>
            <path d="M12.3043125,1.86790625 C11.0895,1.686125 9.847375,1.5725 8.83659375,1.50165625 C8.765,1.81878125 8.53190625,2.10365625 8.23703125,2.10365625 C7.88153125,2.10365625 6.6369375,2.10365625 6.6369375,2.10365625 L6.6369375,1.3926875 L6.6369375,0 C4.700375,0.211125 3.4716875,1.228 2.75678125,2.008375 C3.43359375,2.288875 3.91121875,2.956375 3.91121875,3.7333125 C3.91121875,3.90778125 3.88653125,4.07634375 3.84159375,4.237125 L10.5586562,4.237125 C10.5136875,4.07634375 10.4890312,3.90778125 10.4890312,3.7333125 C10.4889687,2.72134375 11.2986562,1.89525 12.3043125,1.86790625 Z" id="Path"></path>
            <path d="M2.04428125,1.8666875 C2.10365625,1.8666875 2.16203125,1.869875 2.21971875,1.875 L2.54809375,1.422 L2.54809375,0.38534375 L0,0.38534375 L0,2.9928125 L0.27315625,3.146 C0.5201875,2.40371875 1.22065625,1.8666875 2.04428125,1.8666875 Z" id="Path"></path>
            <path d="M14.6962813,3.64440625 L14.6962813,3.34828125 L15.2594375,3.05215625 C15.2594375,3.05215625 15.3635313,2.70715625 15.3635313,2.47015625 C14.7004375,2.25125 13.8144688,2.12321875 12.9967188,1.98003125 C13.7111563,2.2424375 14.22225,2.92925 14.22225,3.7333125 C14.22225,3.90778125 14.1975625,4.07634375 14.152375,4.237125 L16,4.237125 L16,3.64440625 L14.6962813,3.64440625 L14.6962813,3.64440625 Z" id="Path"></path>
            <path d="M12.355625,2.10365625 C11.45575,2.10365625 10.7259375,2.83321875 10.7259375,3.7333125 C10.7259375,4.6334375 11.45575,5.36296875 12.355625,5.36296875 C13.25575,5.36296875 13.9852812,4.63340625 13.9852812,3.7333125 C13.9852812,2.83325 13.25575,2.10365625 12.355625,2.10365625 Z M12.355625,4.592625 C11.880875,4.592625 11.4963125,4.2083125 11.4963125,3.7333125 C11.4963125,3.25859375 11.880875,2.87425 12.355625,2.87425 C12.830125,2.87425 13.2149375,3.25859375 13.2149375,3.7333125 C13.2149375,4.2083125 12.830125,4.592625 12.355625,4.592625 Z" id="Shape"></path>
            <path d="M12.355625,3.46653125 C12.2082813,3.46653125 12.0888125,3.58625 12.0888125,3.73334375 C12.0888125,3.8806875 12.2082812,4.00015625 12.355625,4.00015625 C12.5029687,4.00015625 12.6221875,3.8806875 12.6221875,3.73334375 C12.6221875,3.58625 12.5029687,3.46653125 12.355625,3.46653125 Z" id="Path"></path>
        </g>
    </g>
</svg>