<?xml version="1.0" encoding="UTF-8"?>
<svg width="16px" height="20px" viewBox="0 0 16 20" version="1.1" xmlns="http://www.w3.org/2000/svg" xmlns:xlink="http://www.w3.org/1999/xlink">
    <title>result</title>
    <g id="result" stroke="none" stroke-width="1" fill="none" fill-rule="evenodd">
        <g id="trophy" transform="translate(0.000000, 2.000000)" fill="#FFFFFF" fill-rule="nonzero">
            <path d="M3.19882522,0 C3.19882522,0.857398107 3.19882522,3.25788762 3.19882522,4.28674033 C3.19882522,7.8018724 6.30546249,9.17360303 7.9999919,9.17360303 C9.69452132,9.17360303 12.8011586,7.8018724 12.8011586,4.28674033 C12.8011586,3.25788762 12.8011586,0.857398107 12.8011586,0 L3.19882522,0 Z M8.00903064,1.5810291 L5.87713874,2.51205072 L5.87713874,5.5919158 L5.87560622,6.20273454 C5.85915509,6.19923164 4.39706832,5.88647242 4.39706832,3.75098379 C4.39706832,2.86994109 4.39706832,1.57417967 4.39706832,1.57417967 L6.28566483,1.57417967 L8.00903064,1.5810291 Z" id="Shape"></path>
            <polygon id="Path" points="9.86006477 12.5327934 9.11594805 11.4933381 8.74407735 9.96156859 7.9999919 10.0709718 7.25590646 9.96156859 6.88387937 11.4933381 6.41577266 12.1473802 6.13991903 12.5252559 6.14529849 12.5252559 6.13991903 12.5327934"></polygon>
            <polygon id="Path" points="11.4694299 13.5187042 11.4694299 13.511198 4.53055395 13.511198 4.53055395 16.0006988 4.53055395 16.0057655 4.53055395 16.0057655 4.53055395 16.0132717 11.4694299 16.0132717 11.4694299 13.5237709"></polygon>
            <path d="M15.9953059,3.02338076 C15.9942738,2.98372289 15.9931791,2.95032021 15.9931791,2.92411099 L15.9931791,1.41054405 L13.6822326,1.41054405 L13.6822326,2.62204814 L14.7816437,2.62204814 L14.7816437,2.92411099 C14.7816437,2.95935895 14.782801,3.00408352 14.7843335,3.05728386 C14.7964998,3.49439614 14.825086,4.51808832 14.1104938,5.25294736 C13.9503298,5.41764636 13.7595466,5.5590448 13.5406777,5.67870648 C13.4192333,6.23025735 13.2245095,6.7284515 12.9744585,7.17413338 C13.8051782,6.97377983 14.4765159,6.61435694 14.9791199,6.09755362 C16.0504766,4.99582801 16.0104121,3.5628904 15.9953059,3.02338076 Z" id="Path"></path>
            <path d="M1.88945878,5.25294736 C1.17486653,4.51808832 1.20345272,3.49439614 1.21574416,3.05728386 C1.21721412,3.00408352 1.21830878,2.95935895 1.21830878,2.92411099 L1.21830878,2.62204814 L2.30802443,2.62204814 L2.31021375,2.62204814 L2.31021375,2.62204814 L2.31771997,2.62204814 L2.31771997,1.41054405 L0.00680469356,1.41054405 L0.00680469356,2.92411099 C0.00680469356,2.95032021 0.00580386408,2.98372289 0.00467793091,3.02338076 C-0.0103970632,3.5628904 -0.0503676906,4.99582801 1.02095772,6.09758489 C1.52349922,6.61438822 2.19477432,6.97374855 3.02549407,7.17416466 C2.7754118,6.72848278 2.58075047,6.2301948 2.45930606,5.6786752 C2.24040589,5.55898225 2.04962277,5.41764636 1.88945878,5.25294736 Z" id="Path"></path>
        </g>
    </g>
</svg>