<?xml version="1.0" encoding="UTF-8"?>
<svg width="16px" height="20px" viewBox="0 0 16 20" version="1.1" xmlns="http://www.w3.org/2000/svg" xmlns:xlink="http://www.w3.org/1999/xlink">
    <title>credit</title>
    <g id="credit" stroke="none" stroke-width="1" fill="none" fill-rule="evenodd">
        <g id="code" transform="translate(0.000000, 4.000000)" fill="#FFFFFF" fill-rule="nonzero">
            <path d="M15.8999287,5.84567354 L11.8174917,1.76038764 C11.6828017,1.63446692 11.4735708,1.63446692 11.3388808,1.76038764 L10.4528809,2.64638758 C10.3225815,2.77931954 10.3225815,2.99206652 10.4528809,3.12499848 L13.4128614,6.08497899 L10.4528809,9.04211062 C10.3225815,9.17504258 10.3225815,9.38778956 10.4528809,9.52072152 L11.3388808,10.4067215 C11.402289,10.4703499 11.4883579,10.506212 11.5781863,10.5064321 C11.6678902,10.5055996 11.7537363,10.4698304 11.8174917,10.4067215 L15.8999287,6.32428444 C15.9639565,6.2611154 16,6.17492277 16,6.08497899 C16,5.99503521 15.9639565,5.90884258 15.8999287,5.84567354 L15.8999287,5.84567354 Z" id="Path"></path>
            <path d="M5.54711914,9.04211062 L2.58713863,6.08497899 L5.54711914,3.12499848 C5.61074762,3.06159032 5.64660969,2.97552137 5.64682974,2.88569303 C5.64599729,2.79598904 5.61022812,2.71014302 5.54711914,2.64638758 L4.6611192,1.76038764 C4.59742202,1.69753669 4.51129475,1.66267565 4.42181375,1.66351072 C4.33245145,1.6632953 4.24655119,1.69806445 4.1825083,1.76038764 L0.100071279,5.84567354 C0.0360435034,5.90884258 0,5.99503521 0,6.08497899 C0,6.17492277 0.0360435034,6.2611154 0.100071279,6.32428444 L4.1825083,10.4067215 C4.24626374,10.4698304 4.33210976,10.5055996 4.42181375,10.5064321 C4.51164209,10.506212 4.59771104,10.4703499 4.6611192,10.4067215 L5.54711914,9.52072152 C5.67741852,9.38778956 5.67741852,9.17504258 5.54711914,9.04211062 Z" id="Path"></path>
            <path d="M10.3218326,0.387230182 C10.2786013,0.308428374 10.2058463,0.250019415 10.1195626,0.224844341 L9.40164621,0.0140276348 C9.3158866,-0.0115544068 9.22346627,-0.00188466725 9.14485916,0.040894709 C9.06625206,0.0836740852 9.00794747,0.156031509 8.98286167,0.241937587 L5.64967862,11.5234802 C5.62412895,11.6099957 5.63411372,11.7031264 5.67742296,11.7822594 C5.7207322,11.8613923 5.79379408,11.9200011 5.88043744,11.9451136 L6.59835379,12.1559303 C6.62947517,12.1611367 6.66124528,12.1611367 6.69236665,12.1559303 C6.84256505,12.1568312 6.97513564,12.0579847 7.01713833,11.913776 L10.3503214,0.63223338 C10.3703144,0.549779515 10.3602117,0.462896595 10.3218326,0.387230182 L10.3218326,0.387230182 Z" id="Path"></path>
        </g>
    </g>
</svg>