<?xml version="1.0" encoding="UTF-8"?>
<svg width="16px" height="20px" viewBox="0 0 16 20" version="1.1" xmlns="http://www.w3.org/2000/svg" xmlns:xlink="http://www.w3.org/1999/xlink">
    <title>map</title>
    <g id="map" stroke="none" stroke-width="1" fill="none" fill-rule="evenodd">
        <g transform="translate(0.000000, 2.000000)" fill="#FFFFFF" fill-rule="nonzero" id="Shape">
            <path d="M15.591,0.19325 C15.4175,0.066 15.2095,0.00025 14.9995,0.00025 C14.89875,0.00025 14.79725,0.0155 14.699,0.0465 L10.25825,1.44875 L6.066,0.05125 C5.9635,0.017 5.85675,0 5.74975,0 C5.63275,0 5.5155,0.0205 5.40425,0.06175 L0.65425,1.81175 C0.26125,1.9565 0,2.331 0,2.75 L0,15 C0,15.3185 0.15175,15.61825 0.409,15.80675 C0.5825,15.93375 0.79,16 1,16 C1.101,16 1.20275,15.9845 1.301,15.9535 L5.75,14.5485 L10.199,15.9535 C10.297,15.9845 10.39825,16 10.49975,16 C10.60675,16 10.7135,15.983 10.81625,15.94875 L15.31625,14.44875 C15.7245,14.3125 16,13.9305 16,13.5 L16,1 C16,0.6815 15.84825,0.38175 15.591,0.19325 Z M14.849,0.5235 C14.89775,0.508 14.9485,0.50025 14.99975,0.50025 C15.106,0.50025 15.211,0.5345 15.29575,0.59675 C15.4235,0.6905 15.5,0.84125 15.5,1 L15.5,7.2715 C15.4415,7.2625 15.38075,7.25075 15.317,7.2385 C15.02525,7.18025 14.84225,7.10825 14.622,6.852 C14.362,6.555 14.51325,6.0745 14.22675,5.8235 C14.11625,5.729 14.01025,5.6975 13.90325,5.6975 C13.69725,5.69725 13.48775,5.8145 13.2345,5.8235 C12.818,5.842 12.5315,6.0125 12.186,6.0125 C12.07925,6.0125 11.96675,5.9965 11.843,5.95425 C11.5075,5.83925 11.379,5.5765 11.0485,5.439 C10.942,5.394 10.84475,5.36625 10.75025,5.3455 L10.75025,3.7975 C11.03175,3.89775 11.28275,3.99075 11.644,4.0255 C11.84175,4.04525 12.0015,4.1205 12.1615,4.1205 C12.2515,4.1205 12.34175,4.0965 12.4385,4.0255 C12.73825,3.802 12.99575,3.395 12.8365,2.9985 C12.733,2.73725 12.48375,2.8355 12.33775,2.61225 C12.18125,2.36625 12.2555,2.1415 12.1415,1.84275 C12.2125,1.62375 12.3335,1.46975 12.4005,1.2965 L14.849,0.5235 Z M11.67425,2.021 C11.702,2.09425 11.71075,2.16775 11.7215,2.26075 C11.7405,2.42325 11.76675,2.64625 11.9155,2.8805 C12.06625,3.11075 12.2645,3.19675 12.3835,3.2425 C12.38725,3.37475 12.2585,3.53325 12.1465,3.61925 C12.11625,3.615 12.06175,3.6015 12.02025,3.591 C11.93175,3.5685 11.82175,3.541 11.693,3.528 C11.4045,3.50025 11.203,3.4285 10.94825,3.33725 C10.88675,3.31525 10.81825,3.29175 10.74975,3.2685 L10.74975,1.81775 L11.74025,1.505 C11.71425,1.56225 11.6875,1.6205 11.6655,1.6885 C11.6305,1.797 11.6335,1.9145 11.67425,2.021 Z M10.25,5.3035 C10.11425,5.30625 9.97475,5.3135 9.81775,5.3135 C9.76675,5.3135 9.71425,5.3125 9.65925,5.31025 C9.62975,5.309 9.601,5.3085 9.5725,5.3085 C9.29575,5.3085 9.084,5.36175 8.84725,5.36175 C8.7305,5.36175 8.608,5.34875 8.468,5.31025 C8.1455,5.22075 7.87775,5.26325 7.67325,4.92725 C7.436,4.5285 7.448,4.04775 7.67325,3.63925 C7.90925,3.21675 8.265,3.31275 8.667,3.2545 C8.741,3.2445 8.81075,3.23975 8.87775,3.23975 C9.377,3.23975 9.70625,3.4965 10.24975,3.63775 L10.24975,5.3035 L10.25,5.3035 Z M7.86075,11.05425 C7.72825,11.37675 7.4835,11.444 7.20925,11.444 C7.16225,11.444 7.1145,11.442 7.06625,11.439 C6.77175,11.42175 6.63925,11.21225 6.37125,11.05425 C6.116,10.90375 5.93975,10.69775 5.75025,10.5355 L5.75025,7.2905 C5.937,7.54275 6.01025,7.79975 6.2705,7.96825 C6.3715,8.03375 6.46775,8.05675 6.56175,8.05675 C6.787,8.05675 7.00025,7.9245 7.23825,7.9245 C7.3105,7.9245 7.38525,7.93675 7.463,7.9685 C7.86225,8.135 8.20175,8.238 8.3555,8.743 C8.45625,9.068 8.459,9.317 8.3555,9.63975 C8.2535,9.966 7.95475,9.94875 7.86075,10.282 C7.777,10.5665 7.96825,10.78625 7.86075,11.05425 Z M0.5,4.789 C0.71875,4.78725 0.9305,4.7725 1.20975,4.75825 C1.5585,4.739 1.8085,4.55425 2.0945,4.55425 C2.1905,4.55425 2.2905,4.575 2.39975,4.62975 C2.734,4.79275 2.79625,5.148 3.096,5.399 C3.5485,5.7785 3.90775,5.722 4.38675,6.04325 C4.74375,6.283 4.99125,6.48275 5.25,6.73975 L5.25,10.29225 C5.22625,10.289 5.205,10.2825 5.18,10.2815 C5.087,10.27875 5.0025,10.26775 4.92375,10.26775 C4.8025,10.26775 4.6935,10.29325 4.5845,10.41175 C4.39625,10.6145 4.55825,10.95825 4.387,11.18125 C4.2625,11.34675 4.12275,11.39825 3.9705,11.39825 C3.8225,11.39825 3.66275,11.35 3.493,11.31 C3.152,11.23225 3.03925,10.87875 2.69975,10.79625 C2.5725,10.76575 2.47075,10.74125 2.3675,10.74125 C2.28525,10.74125 2.20225,10.75675 2.104,10.79625 C1.682,10.968 1.61175,11.4435 1.4075,11.95375 C1.2405,12.37625 1.40625,12.826 1.1105,13.10775 C0.96675,13.245 0.829,13.28725 0.68,13.28725 C0.62225,13.28725 0.56225,13.28075 0.50025,13.27125 L0.50025,4.789 L0.5,4.789 Z M0.82725,2.281 L5.25,0.6515 L5.25,6.0625 C5.0745,5.9155 4.889,5.77825 4.6655,5.62825 C4.395,5.44675 4.16075,5.36425 3.95425,5.29125 C3.74525,5.21775 3.5945,5.1645 3.41725,5.01575 C3.34225,4.953 3.28325,4.864 3.2145,4.7605 C3.08775,4.5695 2.93,4.33175 2.61875,4.18 C2.4535,4.09725 2.2755,4.054 2.09425,4.054 C1.86875,4.054 1.681,4.11825 1.51575,4.175 C1.39375,4.21675 1.28825,4.253 1.182,4.25875 L0.9805,4.27 C0.797,4.28 0.6495,4.288 0.5,4.289 L0.5,2.75 C0.5,2.5415 0.63125,2.353 0.82725,2.281 Z M1.15075,15.47675 C1.10175,15.49225 1.051,15.5 1,15.5 C0.893,15.5 0.79075,15.4665 0.7045,15.40325 C0.5765,15.3095 0.5,15.15875 0.5,15 L0.5,13.774 C0.55875,13.781 0.618,13.78775 0.67975,13.78775 C0.9775,13.78775 1.2315,13.68375 1.4555,13.47 C1.7695,13.17125 1.79475,12.79075 1.81375,12.51325 C1.823,12.373 1.832,12.24075 1.8725,12.13825 C1.9175,12.026 1.957,11.9135 1.99475,11.805 C2.11525,11.46125 2.17975,11.306 2.29225,11.26 C2.33675,11.242 2.3565,11.242 2.36725,11.242 C2.41225,11.242 2.49125,11.261 2.5825,11.283 C2.61925,11.292 2.6815,11.3515 2.74725,11.4145 C2.88575,11.54675 3.07525,11.72825 3.3815,11.798 L3.47225,11.82 C3.6215,11.85675 3.7905,11.8985 3.97,11.8985 C4.29875,11.8985 4.581,11.7545 4.78625,11.482 C4.96475,11.24925 4.97275,10.98825 4.9785,10.8155 C4.979,10.802 4.9795,10.78625 4.98,10.77025 C4.994,10.771 5.008,10.77225 5.0225,10.77325 C5.06825,10.77675 5.1155,10.77975 5.165,10.78125 C5.1945,10.7825 5.22225,10.788 5.25,10.79825 L5.25,14.182 L1.15075,15.47675 Z M5.90075,14.07175 L5.75,14.02425 L5.75,11.2125 C5.8555,11.30575 5.9735,11.40025 6.1175,11.48525 C6.1775,11.52075 6.23475,11.56525 6.295,11.61275 C6.459,11.7415 6.68375,11.9175 7.037,11.93825 C7.09425,11.942 7.15225,11.944 7.20925,11.944 C7.7575,11.944 8.13225,11.70875 8.32325,11.2445 C8.43525,10.96525 8.389,10.72525 8.35825,10.5665 C8.347,10.509 8.3345,10.4435 8.34075,10.4225 L8.345,10.4095 C8.3525,10.3995 8.391,10.3695 8.41875,10.34725 C8.53775,10.25375 8.7365,10.097 8.833,9.78875 C8.9645,9.3775 8.965,9.0195 8.83325,8.5945 C8.6225,7.90325 8.1345,7.70325 7.74225,7.5425 L7.6555,7.50675 C7.52025,7.4515 7.381,7.42425 7.23825,7.42425 C7.045,7.42425 6.88,7.47325 6.748,7.51275 C6.67525,7.5345 6.6,7.55675 6.56175,7.55675 C6.55675,7.5565 6.55225,7.555 6.54225,7.54875 C6.47025,7.502 6.42325,7.42575 6.33975,7.28375 C6.27,7.16475 6.183,7.01725 6.05325,6.8695 C5.94475,6.74625 5.84575,6.63775 5.75,6.53725 L5.75,0.5 C5.804,0.5 5.857,0.5085 5.908,0.52575 L10.1,1.923 L10.25,1.973 L10.25,3.11425 C10.124,3.07425 10.00525,3.03 9.8845,2.98175 C9.58875,2.86275 9.28275,2.73975 8.878,2.73975 C8.787,2.73975 8.69325,2.746 8.5995,2.759 C8.52625,2.7695 8.45275,2.77425 8.375,2.77875 C8.048,2.7985 7.554,2.8285 7.23725,3.39525 C6.9185,3.9735 6.9215,4.64075 7.244,5.183 C7.518,5.63375 7.9015,5.7055 8.1555,5.75325 C8.21875,5.765 8.2785,5.77625 8.33475,5.79175 C8.505,5.83875 8.67275,5.8615 8.84775,5.8615 C8.99,5.8615 9.11625,5.847 9.23825,5.83325 C9.351,5.8205 9.4575,5.80825 9.573,5.80825 C9.5945,5.80825 9.61675,5.80875 9.63925,5.8095 C9.7015,5.81225 9.76075,5.81325 9.81825,5.81325 C9.92225,5.81325 10.01925,5.80975 10.1125,5.80675 C10.15975,5.805 10.20475,5.80425 10.2505,5.80325 L10.2505,15.445 L5.90075,14.07175 Z M15.158,13.97425 L10.75,15.4435 L10.75,5.86225 C10.784,5.87325 10.81775,5.8845 10.8545,5.89975 C10.943,5.9365 11.0115,5.99425 11.10625,6.07425 C11.24475,6.191 11.417,6.3365 11.68075,6.42675 C11.85,6.48425 12.01475,6.51225 12.186,6.51225 C12.42475,6.51225 12.631,6.45675 12.813,6.40775 C12.96225,6.3675 13.103,6.32975 13.25675,6.32275 C13.44,6.31625 13.59825,6.27225 13.7255,6.237 C13.78775,6.22 13.85775,6.2005 13.8945,6.1975 C13.914,6.233 13.932,6.3455 13.944,6.42075 C13.97875,6.6355 14.026,6.93 14.24575,7.18125 C14.55025,7.5355 14.8445,7.65375 15.219,7.7285 L15.245,7.73375 C15.32775,7.74925 15.413,7.76325 15.50025,7.77375 L15.50025,13.5 C15.5,13.7155 15.3625,13.90625 15.158,13.97425 Z"></path>
            <path d="M13.8265,9.8305 C13.657,9.7785 13.497,9.7295 13.324,9.7295 C13.161,9.7295 13.01375,9.77375 12.873,9.86525 C12.715,9.9695 12.6695,10.09825 12.659,10.1875 C12.63125,10.42875 12.81,10.61825 12.99925,10.81875 C13.12575,10.95275 13.31675,11.15525 13.27975,11.2515 C13.25575,11.3155 13.18325,11.3505 13.035,11.40975 C12.85075,11.48375 12.57175,11.595 12.5115,11.9275 C12.4775,12.112 12.5195,12.2815 12.63275,12.4175 C12.792,12.60825 13.0805,12.71325 13.446,12.71325 C13.8185,12.71325 14.18475,12.60575 14.428,12.42425 C14.84125,12.10725 14.99975,11.64425 14.899,11.0485 C14.7985,10.44075 14.433,10.02125 13.8265,9.8305 Z M14.12625,12.02575 C13.97375,12.13975 13.7065,12.2135 13.446,12.2135 C13.21625,12.2135 13.06525,12.1555 13.01675,12.0975 C13.00825,12.08725 12.9935,12.06975 13.003,12.0175 C13.01225,11.96775 13.05075,11.94225 13.2205,11.8745 C13.39925,11.803 13.644,11.705 13.74725,11.429 C13.8955,11.04075 13.5875,10.7145 13.3625,10.476 C13.303,10.413 13.22,10.325 13.17875,10.26525 C13.31,10.196 13.45975,10.24125 13.69225,10.31275 C14.10275,10.442 14.336,10.70925 14.40575,11.13125 C14.47625,11.5475 14.38925,11.824 14.12625,12.02575 Z"></path>
        </g>
    </g>
</svg>