<?xml version="1.0" encoding="UTF-8"?>
<svg width="16px" height="20px" viewBox="0 0 16 20" version="1.1" xmlns="http://www.w3.org/2000/svg" xmlns:xlink="http://www.w3.org/1999/xlink">
    <title>races</title>
    <g id="races" stroke="none" stroke-width="1" fill="none" fill-rule="evenodd">
        <g id="race-flag" transform="translate(0.000000, 3.000000)" fill="#FFFFFF" fill-rule="nonzero">
            <path d="M9.07996524,0 C6.50886016,0.468890703 4.19431791,1.84143869 1.09871245,0.456673425 C1.13915585,0.596961479 1.1783354,0.737670818 1.21793623,0.877958872 L0.480686695,0.877958872 L0.421285447,0.667316148 L0,0.667316148 L3.7865136,14.0431291 L4.20779905,14.0431291 L2.5184444,8.07477817 L3.25569394,8.07477817 C3.30161405,8.23907949 3.34879802,8.40253824 3.39471813,8.56683957 C6.48990231,9.95076226 8.80486585,8.57821428 11.3747071,8.10932357 C10.6104953,5.40635614 9.84501962,2.70296743 9.07996524,0 Z M4.12691224,1.47829063 C4.99897312,1.4589115 5.82553516,1.27902262 6.64240765,1.06416704 C6.86189736,1.83638326 7.08012323,2.60902077 7.29919166,3.381237 C6.48274046,3.59609258 5.65575713,3.77598146 4.78285368,3.79536059 C4.56420654,3.02272308 4.3451381,2.25050686 4.12691224,1.47829063 Z M2.42913189,7.75881408 L0.570420496,1.19392296 L1.30767003,1.19392296 C1.92780221,3.38207957 2.54667053,5.57065747 3.16638142,7.75881408 L2.42913189,7.75881408 Z M3.02188051,5.75855078 C2.80786751,5.00360726 2.59343321,4.24908502 2.38068406,3.4941415 C3.24263409,3.81052687 4.04518286,3.91753337 4.81276495,3.90026067 C5.02635667,4.65520419 5.24036968,5.40972643 5.45354011,6.16466995 C4.6868006,6.18194265 3.88383054,6.07493615 3.02188051,5.75855078 Z M8.69996577,8.331341 C7.88351457,8.54661787 7.05695253,8.72608547 6.18404908,8.74504331 C5.96540193,7.9724058 5.74675479,7.20018958 5.52768635,6.42797335 C6.39932594,6.40859422 7.22630928,6.22870534 8.04402433,6.01384976 C8.26267148,6.78690855 8.48173991,7.55870349 8.69996577,8.331341 Z M10.1272809,5.18728771 C9.39887833,5.34526975 8.68901235,5.56181047 7.96987809,5.75054635 C7.75586508,4.99560283 7.54185208,4.2410806 7.32910293,3.48613708 C8.0478159,3.29697991 8.75936702,3.08086048 9.48608442,2.92287843 C9.69925485,3.67782195 9.91326786,4.43234419 10.1272809,5.18728771 Z M9.78519708,1.31609574 C9.82564049,1.45638379 9.86482003,1.59709313 9.90442086,1.73738118 C10.2359725,1.6876695 10.571737,1.65523052 10.9146634,1.64764738 C11.1337318,2.41986361 11.3515364,3.19250112 11.5706048,3.96471734 C11.2280997,3.97230048 10.891914,4.00473946 10.5612049,4.05445114 C10.8101846,4.93198873 11.058743,5.8099476 11.3073014,6.68748519 C11.6380105,6.63777351 11.9746176,6.60533453 12.3167013,6.59775139 C12.5361911,7.36996761 12.7544169,8.14260512 12.9739066,8.91482135 C12.1018458,8.93377919 11.2748624,9.11408937 10.4571474,9.32810237 C10.4061718,9.14610706 10.354775,8.96579689 10.3037995,8.78422286 C9.45364544,9.00708286 8.6152874,9.26870112 7.74743937,9.42668317 C7.83885832,9.74938782 7.93027726,10.0708286 8.02085363,10.3926907 C10.5911161,9.92379999 12.906501,8.55125201 16,9.9351747 C15.2357882,7.23220727 14.46947,4.52881856 13.7044156,1.82542984 C12.2636194,1.18212696 10.9930225,1.13452171 9.78519708,1.31609574 Z M14.674636,6.74056716 C13.812686,6.42418178 13.0105585,6.31717528 12.2429764,6.33444798 C12.0289634,5.57950446 11.8149504,4.82498223 11.6022012,4.07003871 C12.3689407,4.052766 13.1723321,4.15977251 14.0334395,4.47615788 C14.24661,5.2311014 14.4610443,5.98562363 14.674636,6.74056716 Z" id="Shape"></path>
        </g>
    </g>
</svg>